<?xml version="1.0" encoding="utf-8"?>
<!-- Generator: Adobe Illustrator 21.0.0, SVG Export Plug-In . SVG Version: 6.00 Build 0)  -->
<svg version="1.1" id="Layer_1" xmlns="http://www.w3.org/2000/svg" xmlns:xlink="http://www.w3.org/1999/xlink" x="0px" y="0px"
	 viewBox="0 0 500 418" style="enable-background:new 0 0 500 418;" xml:space="preserve">
<style type="text/css">
	.st0{fill:#3C44FF;}
	.st1{fill:#3D45FF;}
</style>
<g>
	<path class="st0" d="M350.5,76.1h-18.8C320.9,40.5,288.2,16,250.8,16c-37.5,0-70.2,24.5-80.9,60.1h-20.9v49h20.9
		c5,16.6,14.9,30.9,27.8,41.3l26.9,178.4h21.4V387h9.7v-42.2h22.9l27.1-179.9c12.1-10.3,21.4-24,26.2-39.8h18.7V76.1z M250.8,25.7
		c32.2,0,60.5,20.4,70.8,50.4H180C190.3,46.1,218.6,25.7,250.8,25.7z M270.2,335.1h-17.9h-6.3h-13.1l-24.3-161.2
		c12.5,7.2,27,11.3,42.2,11.3c15.9,0,30.9-4.5,43.8-12.4L270.2,335.1z M250.8,175.5c-32.2,0-60.5-20.4-70.8-50.4h141.5
		C311.2,154.8,282.9,175.5,250.8,175.5z M340.8,115.4H158.6V85.8h182.2V115.4z"/>
	<path class="st0" d="M235,216.8c0,8.7,7.1,15.7,15.7,15.7c8.7,0,15.7-7.1,15.7-15.7c0-8.7-7.1-15.7-15.7-15.7
		C242.1,201.1,235,208.2,235,216.8z M256.8,216.8c0,3.3-2.7,6-6,6c-3.3,0-6-2.7-6-6s2.7-6,6-6C254.1,210.8,256.8,213.5,256.8,216.8z
		"/>
</g>
</svg>
